<?xml version="1.0" standalone="no"?>
<!DOCTYPE svg PUBLIC "-//W3C//DTD SVG 20010904//EN"
 "http://www.w3.org/TR/2001/REC-SVG-20010904/DTD/svg10.dtd">
<svg version="1.0" xmlns="http://www.w3.org/2000/svg"
 width="96.000000pt" height="96.000000pt" viewBox="0 0 96.000000 96.000000"
 preserveAspectRatio="xMidYMid meet">
<metadata>
Created by potrace 1.11, written by Peter Selinger 2001-2013
</metadata>
<g transform="translate(0.000000,96.000000) scale(0.100000,-0.100000)"
fill="#000000" stroke="none">
<path d="M400 869 c-202 -40 -349 -251 -312 -451 33 -175 160 -301 335 -330
211 -35 425 126 453 340 l7 52 -130 0 -130 0 -6 -30 c-4 -16 -22 -47 -41 -67
-33 -36 -38 -38 -95 -38 -55 0 -63 3 -95 34 -59 57 -61 142 -5 199 17 17 46
34 65 38 l34 6 0 129 c0 144 6 135 -80 118z"/>
</g>
</svg>
